<?xml version="1.0" encoding="utf-8" standalone="no"?>
<!DOCTYPE svg PUBLIC "-//W3C//DTD SVG 1.1//EN"
  "http://www.w3.org/Graphics/SVG/1.1/DTD/svg11.dtd">
<svg height="288pt" version="1.1" viewBox="0 0 432 288" width="432pt" xmlns="http://www.w3.org/2000/svg" xmlns:xlink="http://www.w3.org/1999/xlink">
 <metadata>
  <rdf:RDF xmlns:cc="http://creativecommons.org/ns#" xmlns:dc="http://purl.org/dc/elements/1.1/" xmlns:rdf="http://www.w3.org/1999/02/22-rdf-syntax-ns#">
   <cc:Work>
    <dc:type rdf:resource="http://purl.org/dc/dcmitype/StillImage"/>
    <dc:date>2021-06-03T10:32:40.566137</dc:date>
    <dc:format>image/svg+xml</dc:format>
    <dc:creator>
     <cc:Agent>
      <dc:title>Matplotlib v3.4.2, https://matplotlib.org/</dc:title>
     </cc:Agent>
    </dc:creator>
   </cc:Work>
  </rdf:RDF>
 </metadata>
 <defs>
  <style type="text/css">*{stroke-linecap:butt;stroke-linejoin:round;}</style>
 </defs>
 <g id="figure_1">
  <g id="patch_1">
   <path d="M 0 288 
L 432 288 
L 432 0 
L 0 0 
z
" style="fill:#343a40;"/>
  </g>
  <g id="axes_1">
   <g id="patch_2">
    <path d="M 253.06992 147.21408 
C 253.06992 147.21408 253.06992 147.21408 253.06992 147.21408 
L 164.36592 147.21408 
L 253.06992 147.21408 
z
" style="fill:#002600;opacity:0.5;stroke:#002600;stroke-linejoin:miter;"/>
   </g>
   <g id="patch_3">
    <path d="M 253.06992 147.21408 
C 253.06992 135.565577 250.775419 124.030342 246.31773 113.268529 
C 241.860041 102.506716 235.325855 92.727615 227.08912 84.49088 
C 218.852385 76.254145 209.073284 69.719959 198.311471 65.26227 
C 187.549658 60.804581 176.014423 58.51008 164.36592 58.51008 
C 152.717417 58.51008 141.182182 60.804581 130.420369 65.26227 
C 119.658556 69.719959 109.879455 76.254145 101.64272 84.49088 
C 93.405985 92.727615 86.871799 102.506716 82.41411 113.268529 
C 77.956421 124.030342 75.66192 135.565577 75.66192 147.21408 
C 75.66192 158.862583 77.956421 170.397818 82.41411 181.159631 
C 86.871799 191.921444 93.405985 201.700545 101.64272 209.93728 
C 109.879455 218.174015 119.658556 224.708201 130.420369 229.16589 
C 141.182182 233.623579 152.717417 235.91808 164.36592 235.91808 
C 176.014423 235.91808 187.549658 233.623579 198.311471 229.16589 
C 209.073284 224.708201 218.852385 218.174015 227.08912 209.93728 
C 235.325855 201.700545 241.860041 191.921444 246.31773 181.159631 
C 250.775419 170.397818 253.06992 158.862583 253.06992 147.21408 
M 164.36592 147.21408 
M 253.06992 147.21408 
z
" style="fill:#333333;opacity:0.5;stroke:#333333;stroke-linejoin:miter;"/>
   </g>
   <g id="patch_4">
    <path d="M 254.844 145.44 
C 254.844 145.44 254.844 145.44 254.844 145.44 
L 166.14 145.44 
L 254.844 145.44 
z
" style="fill:#008000;"/>
   </g>
   <g id="patch_5">
    <path d="M 254.844 145.44 
C 254.844 133.791497 252.549499 122.256262 248.09181 111.494449 
C 243.634121 100.732636 237.099935 90.953535 228.8632 82.7168 
C 220.626465 74.480065 210.847364 67.945879 200.085551 63.48819 
C 189.323738 59.030501 177.788503 56.736 166.14 56.736 
C 154.491497 56.736 142.956262 59.030501 132.194449 63.48819 
C 121.432636 67.945879 111.653535 74.480065 103.4168 82.7168 
C 95.180065 90.953535 88.645879 100.732636 84.18819 111.494449 
C 79.730501 122.256262 77.436 133.791497 77.436 145.44 
C 77.436 157.088503 79.730501 168.623738 84.18819 179.385551 
C 88.645879 190.147364 95.180065 199.926465 103.4168 208.1632 
C 111.653535 216.399935 121.432636 222.934121 132.194449 227.39181 
C 142.956262 231.849499 154.491497 234.144 166.14 234.144 
C 177.788503 234.144 189.323738 231.849499 200.085551 227.39181 
C 210.847364 222.934121 220.626465 216.399935 228.8632 208.1632 
C 237.099935 199.926465 243.634121 190.147364 248.09181 179.385551 
C 252.549499 168.623738 254.844 157.088503 254.844 145.44 
M 166.14 145.44 
M 254.844 145.44 
z
" style="fill:#a9a9a9;"/>
   </g>
   <g id="matplotlib.axis_1"/>
   <g id="matplotlib.axis_2"/>
   <g id="legend_1">
    <g id="patch_6">
     <path d="M 284.02 161.618125 
L 413.02 161.618125 
Q 415.02 161.618125 415.02 159.618125 
L 415.02 131.261875 
Q 415.02 129.261875 413.02 129.261875 
L 284.02 129.261875 
Q 282.02 129.261875 282.02 131.261875 
L 282.02 159.618125 
Q 282.02 161.618125 284.02 161.618125 
z
" style="fill:#ffffff;opacity:0.8;stroke:#cccccc;stroke-linejoin:miter;"/>
    </g>
    <g id="patch_7">
     <path d="M 286.02 142.94 
L 306.02 142.94 
L 306.02 135.94 
L 286.02 135.94 
z
" style="fill:#008000;"/>
    </g>
    <g id="text_1">
     <!-- Done        0    0% -->
     <g transform="translate(324.346563 140.860312)scale(0.1 -0.1)">
      <defs>
       <path d="M 1259 4147 
L 1259 519 
L 2022 519 
Q 2988 519 3436 956 
Q 3884 1394 3884 2338 
Q 3884 3275 3436 3711 
Q 2988 4147 2022 4147 
L 1259 4147 
z
M 628 4666 
L 1925 4666 
Q 3281 4666 3915 4102 
Q 4550 3538 4550 2338 
Q 4550 1131 3912 565 
Q 3275 0 1925 0 
L 628 0 
L 628 4666 
z
" id="DejaVuSans-44" transform="scale(0.015625)"/>
       <path d="M 1959 3097 
Q 1497 3097 1228 2736 
Q 959 2375 959 1747 
Q 959 1119 1226 758 
Q 1494 397 1959 397 
Q 2419 397 2687 759 
Q 2956 1122 2956 1747 
Q 2956 2369 2687 2733 
Q 2419 3097 1959 3097 
z
M 1959 3584 
Q 2709 3584 3137 3096 
Q 3566 2609 3566 1747 
Q 3566 888 3137 398 
Q 2709 -91 1959 -91 
Q 1206 -91 779 398 
Q 353 888 353 1747 
Q 353 2609 779 3096 
Q 1206 3584 1959 3584 
z
" id="DejaVuSans-6f" transform="scale(0.015625)"/>
       <path d="M 3513 2113 
L 3513 0 
L 2938 0 
L 2938 2094 
Q 2938 2591 2744 2837 
Q 2550 3084 2163 3084 
Q 1697 3084 1428 2787 
Q 1159 2491 1159 1978 
L 1159 0 
L 581 0 
L 581 3500 
L 1159 3500 
L 1159 2956 
Q 1366 3272 1645 3428 
Q 1925 3584 2291 3584 
Q 2894 3584 3203 3211 
Q 3513 2838 3513 2113 
z
" id="DejaVuSans-6e" transform="scale(0.015625)"/>
       <path d="M 3597 1894 
L 3597 1613 
L 953 1613 
Q 991 1019 1311 708 
Q 1631 397 2203 397 
Q 2534 397 2845 478 
Q 3156 559 3463 722 
L 3463 178 
Q 3153 47 2828 -22 
Q 2503 -91 2169 -91 
Q 1331 -91 842 396 
Q 353 884 353 1716 
Q 353 2575 817 3079 
Q 1281 3584 2069 3584 
Q 2775 3584 3186 3129 
Q 3597 2675 3597 1894 
z
M 3022 2063 
Q 3016 2534 2758 2815 
Q 2500 3097 2075 3097 
Q 1594 3097 1305 2825 
Q 1016 2553 972 2059 
L 3022 2063 
z
" id="DejaVuSans-65" transform="scale(0.015625)"/>
       <path id="DejaVuSans-20" transform="scale(0.015625)"/>
       <path d="M 2034 4250 
Q 1547 4250 1301 3770 
Q 1056 3291 1056 2328 
Q 1056 1369 1301 889 
Q 1547 409 2034 409 
Q 2525 409 2770 889 
Q 3016 1369 3016 2328 
Q 3016 3291 2770 3770 
Q 2525 4250 2034 4250 
z
M 2034 4750 
Q 2819 4750 3233 4129 
Q 3647 3509 3647 2328 
Q 3647 1150 3233 529 
Q 2819 -91 2034 -91 
Q 1250 -91 836 529 
Q 422 1150 422 2328 
Q 422 3509 836 4129 
Q 1250 4750 2034 4750 
z
" id="DejaVuSans-30" transform="scale(0.015625)"/>
       <path d="M 4653 2053 
Q 4381 2053 4226 1822 
Q 4072 1591 4072 1178 
Q 4072 772 4226 539 
Q 4381 306 4653 306 
Q 4919 306 5073 539 
Q 5228 772 5228 1178 
Q 5228 1588 5073 1820 
Q 4919 2053 4653 2053 
z
M 4653 2450 
Q 5147 2450 5437 2106 
Q 5728 1763 5728 1178 
Q 5728 594 5436 251 
Q 5144 -91 4653 -91 
Q 4153 -91 3862 251 
Q 3572 594 3572 1178 
Q 3572 1766 3864 2108 
Q 4156 2450 4653 2450 
z
M 1428 4353 
Q 1159 4353 1004 4120 
Q 850 3888 850 3481 
Q 850 3069 1003 2837 
Q 1156 2606 1428 2606 
Q 1700 2606 1854 2837 
Q 2009 3069 2009 3481 
Q 2009 3884 1853 4118 
Q 1697 4353 1428 4353 
z
M 4250 4750 
L 4750 4750 
L 1831 -91 
L 1331 -91 
L 4250 4750 
z
M 1428 4750 
Q 1922 4750 2215 4408 
Q 2509 4066 2509 3481 
Q 2509 2891 2217 2550 
Q 1925 2209 1428 2209 
Q 931 2209 642 2551 
Q 353 2894 353 3481 
Q 353 4063 643 4406 
Q 934 4750 1428 4750 
z
" id="DejaVuSans-25" transform="scale(0.015625)"/>
      </defs>
      <use xlink:href="#DejaVuSans-44"/>
      <use x="77.001953" xlink:href="#DejaVuSans-6f"/>
      <use x="138.183594" xlink:href="#DejaVuSans-6e"/>
      <use x="201.5625" xlink:href="#DejaVuSans-65"/>
      <use x="263.085938" xlink:href="#DejaVuSans-20"/>
      <use x="294.873047" xlink:href="#DejaVuSans-20"/>
      <use x="326.660156" xlink:href="#DejaVuSans-20"/>
      <use x="358.447266" xlink:href="#DejaVuSans-20"/>
      <use x="390.234375" xlink:href="#DejaVuSans-20"/>
      <use x="422.021484" xlink:href="#DejaVuSans-20"/>
      <use x="453.808594" xlink:href="#DejaVuSans-20"/>
      <use x="485.595703" xlink:href="#DejaVuSans-20"/>
      <use x="517.382812" xlink:href="#DejaVuSans-30"/>
      <use x="581.005859" xlink:href="#DejaVuSans-20"/>
      <use x="612.792969" xlink:href="#DejaVuSans-20"/>
      <use x="644.580078" xlink:href="#DejaVuSans-20"/>
      <use x="676.367188" xlink:href="#DejaVuSans-20"/>
      <use x="708.154297" xlink:href="#DejaVuSans-30"/>
      <use x="771.777344" xlink:href="#DejaVuSans-25"/>
     </g>
    </g>
    <g id="patch_8">
     <path d="M 286.02 157.618125 
L 306.02 157.618125 
L 306.02 150.618125 
L 286.02 150.618125 
z
" style="fill:#a9a9a9;"/>
    </g>
    <g id="text_2">
     <!-- In progress   1  100% -->
     <g transform="translate(304.552812 155.538437)scale(0.1 -0.1)">
      <defs>
       <path d="M 628 4666 
L 1259 4666 
L 1259 0 
L 628 0 
L 628 4666 
z
" id="DejaVuSans-49" transform="scale(0.015625)"/>
       <path d="M 1159 525 
L 1159 -1331 
L 581 -1331 
L 581 3500 
L 1159 3500 
L 1159 2969 
Q 1341 3281 1617 3432 
Q 1894 3584 2278 3584 
Q 2916 3584 3314 3078 
Q 3713 2572 3713 1747 
Q 3713 922 3314 415 
Q 2916 -91 2278 -91 
Q 1894 -91 1617 61 
Q 1341 213 1159 525 
z
M 3116 1747 
Q 3116 2381 2855 2742 
Q 2594 3103 2138 3103 
Q 1681 3103 1420 2742 
Q 1159 2381 1159 1747 
Q 1159 1113 1420 752 
Q 1681 391 2138 391 
Q 2594 391 2855 752 
Q 3116 1113 3116 1747 
z
" id="DejaVuSans-70" transform="scale(0.015625)"/>
       <path d="M 2631 2963 
Q 2534 3019 2420 3045 
Q 2306 3072 2169 3072 
Q 1681 3072 1420 2755 
Q 1159 2438 1159 1844 
L 1159 0 
L 581 0 
L 581 3500 
L 1159 3500 
L 1159 2956 
Q 1341 3275 1631 3429 
Q 1922 3584 2338 3584 
Q 2397 3584 2469 3576 
Q 2541 3569 2628 3553 
L 2631 2963 
z
" id="DejaVuSans-72" transform="scale(0.015625)"/>
       <path d="M 2906 1791 
Q 2906 2416 2648 2759 
Q 2391 3103 1925 3103 
Q 1463 3103 1205 2759 
Q 947 2416 947 1791 
Q 947 1169 1205 825 
Q 1463 481 1925 481 
Q 2391 481 2648 825 
Q 2906 1169 2906 1791 
z
M 3481 434 
Q 3481 -459 3084 -895 
Q 2688 -1331 1869 -1331 
Q 1566 -1331 1297 -1286 
Q 1028 -1241 775 -1147 
L 775 -588 
Q 1028 -725 1275 -790 
Q 1522 -856 1778 -856 
Q 2344 -856 2625 -561 
Q 2906 -266 2906 331 
L 2906 616 
Q 2728 306 2450 153 
Q 2172 0 1784 0 
Q 1141 0 747 490 
Q 353 981 353 1791 
Q 353 2603 747 3093 
Q 1141 3584 1784 3584 
Q 2172 3584 2450 3431 
Q 2728 3278 2906 2969 
L 2906 3500 
L 3481 3500 
L 3481 434 
z
" id="DejaVuSans-67" transform="scale(0.015625)"/>
       <path d="M 2834 3397 
L 2834 2853 
Q 2591 2978 2328 3040 
Q 2066 3103 1784 3103 
Q 1356 3103 1142 2972 
Q 928 2841 928 2578 
Q 928 2378 1081 2264 
Q 1234 2150 1697 2047 
L 1894 2003 
Q 2506 1872 2764 1633 
Q 3022 1394 3022 966 
Q 3022 478 2636 193 
Q 2250 -91 1575 -91 
Q 1294 -91 989 -36 
Q 684 19 347 128 
L 347 722 
Q 666 556 975 473 
Q 1284 391 1588 391 
Q 1994 391 2212 530 
Q 2431 669 2431 922 
Q 2431 1156 2273 1281 
Q 2116 1406 1581 1522 
L 1381 1569 
Q 847 1681 609 1914 
Q 372 2147 372 2553 
Q 372 3047 722 3315 
Q 1072 3584 1716 3584 
Q 2034 3584 2315 3537 
Q 2597 3491 2834 3397 
z
" id="DejaVuSans-73" transform="scale(0.015625)"/>
       <path d="M 794 531 
L 1825 531 
L 1825 4091 
L 703 3866 
L 703 4441 
L 1819 4666 
L 2450 4666 
L 2450 531 
L 3481 531 
L 3481 0 
L 794 0 
L 794 531 
z
" id="DejaVuSans-31" transform="scale(0.015625)"/>
      </defs>
      <use xlink:href="#DejaVuSans-49"/>
      <use x="29.492188" xlink:href="#DejaVuSans-6e"/>
      <use x="92.871094" xlink:href="#DejaVuSans-20"/>
      <use x="124.658203" xlink:href="#DejaVuSans-70"/>
      <use x="188.134766" xlink:href="#DejaVuSans-72"/>
      <use x="226.998047" xlink:href="#DejaVuSans-6f"/>
      <use x="288.179688" xlink:href="#DejaVuSans-67"/>
      <use x="351.65625" xlink:href="#DejaVuSans-72"/>
      <use x="390.519531" xlink:href="#DejaVuSans-65"/>
      <use x="452.042969" xlink:href="#DejaVuSans-73"/>
      <use x="504.142578" xlink:href="#DejaVuSans-73"/>
      <use x="556.242188" xlink:href="#DejaVuSans-20"/>
      <use x="588.029297" xlink:href="#DejaVuSans-20"/>
      <use x="619.816406" xlink:href="#DejaVuSans-20"/>
      <use x="651.603516" xlink:href="#DejaVuSans-31"/>
      <use x="715.226562" xlink:href="#DejaVuSans-20"/>
      <use x="747.013672" xlink:href="#DejaVuSans-20"/>
      <use x="778.800781" xlink:href="#DejaVuSans-31"/>
      <use x="842.423828" xlink:href="#DejaVuSans-30"/>
      <use x="906.046875" xlink:href="#DejaVuSans-30"/>
      <use x="969.669922" xlink:href="#DejaVuSans-25"/>
     </g>
    </g>
   </g>
  </g>
 </g>
</svg>
